<?xml version="1.0" standalone="no"?>
<!DOCTYPE svg PUBLIC "-//W3C//DTD SVG 20010904//EN"
 "http://www.w3.org/TR/2001/REC-SVG-20010904/DTD/svg10.dtd">
<svg version="1.0" xmlns="http://www.w3.org/2000/svg"
 width="24.000000pt" height="24.000000pt" viewBox="0 0 24.000000 24.000000"
 preserveAspectRatio="xMidYMid meet">
<metadata>
Created by potrace 1.10, written by Peter Selinger 2001-2011
</metadata>
<g transform="translate(0.000000,24.000000) scale(0.100000,-0.100000)"
fill="#000000" stroke="none">
<path d="M58 182 c-43 -14 -64 -32 -39 -32 11 0 3 -66 -11 -93 -8 -15 -6 -18
9 -15 14 2 19 14 21 51 3 48 9 55 66 77 14 5 26 6 26 1 0 -5 -15 -14 -32 -21
l-33 -12 25 -9 c17 -7 42 -5 87 7 35 9 63 20 63 23 0 6 -113 42 -127 40 -4 0
-29 -8 -55 -17z"/>
<path d="M53 107 c3 -31 15 -37 73 -37 52 0 74 12 74 42 0 16 -3 16 -41 3 -35
-13 -45 -13 -75 0 -32 13 -33 13 -31 -8z"/>
</g>
</svg>
